<svg xmlns="http://www.w3.org/2000/svg" width="1440" height="900"><path d="M594,328L916,684L817,271Z" fill="#f8f8af" stroke="#f8f8af" stroke-width="1.51"/><path d="M594,328L442,585L916,684Z" fill="#eef09b" stroke="#eef09b" stroke-width="1.51"/><path d="M630,1072L952,940L916,684Z" fill="#7cac64" stroke="#7cac64" stroke-width="1.51"/><path d="M442,585L630,1072L916,684Z" fill="#a3cc7f" stroke="#a3cc7f" stroke-width="1.51"/><path d="M111,303L254,717L442,585Z" fill="#edaf65" stroke="#edaf65" stroke-width="1.51"/><path d="M817,271L449,-80L594,328Z" fill="#fdab6d" stroke="#fdab6d" stroke-width="1.51"/><path d="M1297,346L923,-31L817,271Z" fill="#d5ad58" stroke="#d5ad58" stroke-width="1.51"/><path d="M1297,346L817,271L916,684Z" fill="#d3e990" stroke="#d3e990" stroke-width="1.51"/><path d="M1298,677L1297,346L916,684Z" fill="#96d070" stroke="#96d070" stroke-width="1.51"/><path d="M1181,972L1298,677L916,684Z" fill="#58b35d" stroke="#58b35d" stroke-width="1.51"/><path d="M254,717L630,1072L442,585Z" fill="#a6ac5c" stroke="#a6ac5c" stroke-width="1.51"/><path d="M952,940L1181,972L916,684Z" fill="#61a855" stroke="#61a855" stroke-width="1.51"/><path d="M975,1239L1181,972L952,940Z" fill="#589d4f" stroke="#589d4f" stroke-width="1.51"/><path d="M923,-31L449,-80L817,271Z" fill="#e8996d" stroke="#e8996d" stroke-width="1.51"/><path d="M594,328L111,303L442,585Z" fill="#ffc57d" stroke="#ffc57d" stroke-width="1.51"/><path d="M449,-80L111,303L594,328Z" fill="#f8864d" stroke="#f8864d" stroke-width="1.51"/><path d="M630,1072L975,1239L952,940Z" fill="#7aaa61" stroke="#7aaa61" stroke-width="1.51"/><path d="M449,-80L184,-33L111,303Z" fill="#da4431" stroke="#da4431" stroke-width="1.51"/><path d="M923,-31L574,-350L449,-80Z" fill="#d88861" stroke="#d88861" stroke-width="1.51"/><path d="M1297,346L1348,-17L923,-31Z" fill="#ac8442" stroke="#ac8442" stroke-width="1.51"/><path d="M1508,18L1348,-17L1297,346Z" fill="#916c37" stroke="#916c37" stroke-width="1.51"/><path d="M254,717L96,1017L630,1072Z" fill="#917a40" stroke="#917a40" stroke-width="1.51"/><path d="M630,1072L483,1335L975,1239Z" fill="#8baf73" stroke="#8baf73" stroke-width="1.51"/><path d="M-134,879L96,1017L254,717Z" fill="#815d32" stroke="#815d32" stroke-width="1.51"/><path d="M1298,677L1588,352L1297,346Z" fill="#8eb97a" stroke="#8eb97a" stroke-width="1.51"/><path d="M1615,690L1588,352L1298,677Z" fill="#6fa65a" stroke="#6fa65a" stroke-width="1.51"/><path d="M449,-80L88,-405L184,-33Z" fill="#c83730" stroke="#c83730" stroke-width="1.51"/><path d="M966,-525L574,-350L923,-31Z" fill="#cd8c5c" stroke="#cd8c5c" stroke-width="1.51"/><path d="M96,1017L483,1335L630,1072Z" fill="#918848" stroke="#918848" stroke-width="1.51"/><path d="M1635,945L1298,677L1181,972Z" fill="#0b7c42" stroke="#0b7c42" stroke-width="1.51"/><path d="M1635,945L1615,690L1298,677Z" fill="#268747" stroke="#268747" stroke-width="1.51"/><path d="M-219,365L-109,643L111,303Z" fill="#da8d69" stroke="#da8d69" stroke-width="1.51"/><path d="M111,303L-109,643L254,717Z" fill="#d49253" stroke="#d49253" stroke-width="1.51"/><path d="M1202,-457L966,-525L923,-31Z" fill="#ae8045" stroke="#ae8045" stroke-width="1.51"/><path d="M1588,352L1508,18L1297,346Z" fill="#928446" stroke="#928446" stroke-width="1.51"/><path d="M-109,643L-134,879L254,717Z" fill="#92723f" stroke="#92723f" stroke-width="1.51"/><path d="M96,1017L218,1379L483,1335Z" fill="#906f3a" stroke="#906f3a" stroke-width="1.51"/><path d="M1638,1353L1635,945L1181,972Z" fill="#006837" stroke="#006837" stroke-width="1.51"/><path d="M-111,-87L-219,365L111,303Z" fill="#cd4836" stroke="#cd4836" stroke-width="1.51"/><path d="M-109,643L-452,677L-134,879Z" fill="#957441" stroke="#957441" stroke-width="1.51"/><path d="M975,1239L1225,1394L1181,972Z" fill="#42944d" stroke="#42944d" stroke-width="1.51"/><path d="M483,1335L1225,1394L975,1239Z" fill="#73a75c" stroke="#73a75c" stroke-width="1.51"/><path d="M483,1335L218,1379L1225,1394Z" fill="#8caa6a" stroke="#8caa6a" stroke-width="1.51"/><path d="M-250,1243L218,1379L96,1017Z" fill="#73502d" stroke="#73502d" stroke-width="1.51"/><path d="M1202,-457L923,-31L1348,-17Z" fill="#987642" stroke="#987642" stroke-width="1.51"/><path d="M184,-33L-111,-87L111,303Z" fill="#c01f27" stroke="#c01f27" stroke-width="1.51"/><path d="M-71,-350L-111,-87L184,-33Z" fill="#a50026" stroke="#a50026" stroke-width="1.51"/><path d="M88,-405L449,-80L574,-350Z" fill="#d0573c" stroke="#d0573c" stroke-width="1.51"/><path d="M1635,-404L1202,-457L1348,-17Z" fill="#755631" stroke="#755631" stroke-width="1.51"/><path d="M966,-525L88,-405L574,-350Z" fill="#d57b51" stroke="#d57b51" stroke-width="1.51"/><path d="M1588,352L1885,188L1508,18Z" fill="#92743d" stroke="#92743d" stroke-width="1.51"/><path d="M1508,18L1635,-404L1348,-17Z" fill="#704e2d" stroke="#704e2d" stroke-width="1.51"/><path d="M1950,616L1885,188L1588,352Z" fill="#8da866" stroke="#8da866" stroke-width="1.51"/><path d="M1950,616L1588,352L1615,690Z" fill="#75a85d" stroke="#75a85d" stroke-width="1.51"/><path d="M-111,-87L-430,281L-219,365Z" fill="#cd4435" stroke="#cd4435" stroke-width="1.51"/><path d="M88,-405L-71,-350L184,-33Z" fill="#b00f27" stroke="#b00f27" stroke-width="1.51"/><path d="M2021,884L1615,690L1635,945Z" fill="#08783f" stroke="#08783f" stroke-width="1.51"/><path d="M2021,884L1950,616L1615,690Z" fill="#37904c" stroke="#37904c" stroke-width="1.51"/><path d="M-595,-106L-430,281L-111,-87Z" fill="#ad0b27" stroke="#ad0b27" stroke-width="1.51"/><path d="M-219,365L-452,677L-109,643Z" fill="#c38851" stroke="#c38851" stroke-width="1.51"/><path d="M-134,879L-250,1243L96,1017Z" fill="#704e2d" stroke="#704e2d" stroke-width="1.51"/><path d="M-430,281L-452,677L-219,365Z" fill="#da8e6b" stroke="#da8e6b" stroke-width="1.51"/><path d="M1225,1394L1638,1353L1181,972Z" fill="#08773f" stroke="#08773f" stroke-width="1.51"/><path d="M-450,887L-250,1243L-134,879Z" fill="#704e2d" stroke="#704e2d" stroke-width="1.51"/><path d="M1930,-171L1635,-404L1508,18Z" fill="#704e2d" stroke="#704e2d" stroke-width="1.51"/><path d="M1202,-457L1635,-404L966,-525Z" fill="#85693b" stroke="#85693b" stroke-width="1.51"/><path d="M-452,677L-450,887L-134,879Z" fill="#806539" stroke="#806539" stroke-width="1.51"/><path d="M1994,1321L2021,884L1635,945Z" fill="#006837" stroke="#006837" stroke-width="1.51"/><path d="M2026,-398L1930,-171L1885,188Z" fill="#704e2d" stroke="#704e2d" stroke-width="1.51"/><path d="M2026,-398L1885,188L1950,616Z" fill="#8d6835" stroke="#8d6835" stroke-width="1.51"/><path d="M1885,188L1930,-171L1508,18Z" fill="#73502d" stroke="#73502d" stroke-width="1.51"/><path d="M1638,1353L1994,1321L1635,945Z" fill="#006837" stroke="#006837" stroke-width="1.51"/><path d="M1225,1394L1994,1321L1638,1353Z" fill="#006837" stroke="#006837" stroke-width="1.51"/><path d="M-430,281L-595,-106L-452,677Z" fill="#d36a45" stroke="#d36a45" stroke-width="1.51"/><path d="M-452,677L-577,1380L-450,887Z" fill="#704e2d" stroke="#704e2d" stroke-width="1.51"/><path d="M-514,-395L-595,-106L-111,-87Z" fill="#a50026" stroke="#a50026" stroke-width="1.51"/><path d="M1930,-171L2026,-398L1635,-404Z" fill="#704e2d" stroke="#704e2d" stroke-width="1.51"/><path d="M1635,-404L2026,-398L966,-525Z" fill="#704e2d" stroke="#704e2d" stroke-width="1.51"/><path d="M2021,884L2026,-398L1950,616Z" fill="#8da561" stroke="#8da561" stroke-width="1.51"/><path d="M-71,-350L-514,-395L-111,-87Z" fill="#a50026" stroke="#a50026" stroke-width="1.51"/><path d="M88,-405L-514,-395L-71,-350Z" fill="#a50026" stroke="#a50026" stroke-width="1.51"/><path d="M966,-525L-514,-395L88,-405Z" fill="#c1282a" stroke="#c1282a" stroke-width="1.51"/><path d="M-595,-106L-577,1380L-452,677Z" fill="#ac7f45" stroke="#ac7f45" stroke-width="1.51"/><path d="M-450,887L-577,1380L-250,1243Z" fill="#704e2d" stroke="#704e2d" stroke-width="1.51"/><path d="M-250,1243L-577,1380L218,1379Z" fill="#704e2d" stroke="#704e2d" stroke-width="1.51"/><path d="M218,1379L-577,1380L1225,1394Z" fill="#91733c" stroke="#91733c" stroke-width="1.51"/></svg>